# MagicaVoxel @ Ephtracy

# group
o 

# material
mtllib Exports-2.mtl
usemtl palette

# normals
vn 0 0 1
vn 0 0 -1
vn 1 0 0
vn -1 0 0
vn 0 -1 0
vn 0 1 0

# texcoords
vt 0.970703 0.5
vt 0.974609 0.5

# verts
v 2.1 0 0
v 0 0 0
v 2.1 0.3 0
v 0 0.3 0
v 2.1 0 -2.1
v 0 0 -2.1
v 2 0.2 -2.1
v 1.7 0.2 -2.1
v 1.6 0.2 -2.1
v 1.3 0.2 -2.1
v 1.2 0.2 -2.1
v 0.9 0.2 -2.1
v 0.8 0.2 -2.1
v 0.5 0.2 -2.1
v 0.4 0.2 -2.1
v 0.0999999 0.2 -2.1
v 2.1 0.3 -2.1
v 2 0.3 -2.1
v 1.7 0.3 -2.1
v 1.6 0.3 -2.1
v 1.3 0.3 -2.1
v 1.2 0.3 -2.1
v 0.9 0.3 -2.1
v 0.8 0.3 -2.1
v 0.5 0.3 -2.1
v 0.4 0.3 -2.1
v 0.0999999 0.3 -2.1
v 0 0.3 -2.1
v 2.1 0 0
v 2.1 0.3 0
v 2.1 0 -2.1
v 2.1 0.3 -2.1
v 0 0 0
v 0 0.3 0
v 0 0 -2.1
v 0 0.3 -2.1
v 2.1 0 0
v 2.1 0 -2.1
v 0 0 0
v 0 0 -2.1
v 2.1 0.3 0
v 2.1 0.3 -2.1
v 2 0.3 -2
v 2 0.3 -2.1
v 1.7 0.3 -2
v 1.7 0.3 -2.1
v 1.6 0.3 -2
v 1.6 0.3 -2.1
v 1.3 0.3 -2
v 1.3 0.3 -2.1
v 1.2 0.3 -2
v 1.2 0.3 -2.1
v 1.1 0.3 -0.1
v 1.1 0.3 -0.6
v 1.1 0.3 -0.8
v 1.1 0.3 -1.3
v 1.1 0.3 -1.5
v 1.1 0.3 -2
v 1 0.3 -0.1
v 1 0.3 -0.6
v 1 0.3 -0.8
v 1 0.3 -1.3
v 1 0.3 -1.5
v 1 0.3 -2
v 0.9 0.3 -2
v 0.9 0.3 -2.1
v 0.8 0.3 -2
v 0.8 0.3 -2.1
v 0.5 0.3 -2
v 0.5 0.3 -2.1
v 0.4 0.3 -2
v 0.4 0.3 -2.1
v 0.0999999 0.3 -2
v 0.0999999 0.3 -2.1
v 0 0.3 0
v 0 0.3 -2.1

# faces
f 3/1/1 2/1/1 1/1/1
f 4/1/1 2/1/1 3/1/1
f 5/1/2 6/1/2 7/1/2
f 7/1/2 6/1/2 8/1/2
f 8/1/2 6/1/2 9/1/2
f 9/1/2 6/1/2 10/1/2
f 10/1/2 6/1/2 11/1/2
f 11/1/2 6/1/2 12/1/2
f 12/1/2 6/1/2 13/1/2
f 13/1/2 6/1/2 14/1/2
f 14/1/2 6/1/2 15/1/2
f 15/1/2 6/1/2 16/1/2
f 5/1/2 7/1/2 17/1/2
f 7/2/2 8/2/2 18/2/2
f 17/1/2 7/1/2 18/1/2
f 8/1/2 9/1/2 19/1/2
f 18/2/2 8/2/2 19/2/2
f 9/2/2 10/2/2 20/2/2
f 19/1/2 9/1/2 20/1/2
f 10/1/2 11/1/2 21/1/2
f 20/2/2 10/2/2 21/2/2
f 11/2/2 12/2/2 22/2/2
f 21/1/2 11/1/2 22/1/2
f 12/1/2 13/1/2 23/1/2
f 22/2/2 12/2/2 23/2/2
f 13/2/2 14/2/2 24/2/2
f 23/1/2 13/1/2 24/1/2
f 14/1/2 15/1/2 25/1/2
f 24/2/2 14/2/2 25/2/2
f 15/2/2 16/2/2 26/2/2
f 25/1/2 15/1/2 26/1/2
f 16/1/2 6/1/2 27/1/2
f 26/2/2 16/2/2 27/2/2
f 27/1/2 6/1/2 28/1/2
f 31/1/3 30/1/3 29/1/3
f 32/1/3 30/1/3 31/1/3
f 33/1/4 34/1/4 35/1/4
f 35/1/4 34/1/4 36/1/4
f 39/1/5 38/1/5 37/1/5
f 40/1/5 38/1/5 39/1/5
f 41/1/6 42/1/6 43/1/6
f 43/1/6 42/1/6 44/1/6
f 41/1/6 43/1/6 45/1/6
f 43/2/6 44/2/6 45/2/6
f 45/2/6 44/2/6 46/2/6
f 41/1/6 45/1/6 47/1/6
f 45/1/6 46/1/6 47/1/6
f 47/1/6 46/1/6 48/1/6
f 41/1/6 47/1/6 49/1/6
f 47/2/6 48/2/6 49/2/6
f 49/2/6 48/2/6 50/2/6
f 41/1/6 49/1/6 51/1/6
f 49/1/6 50/1/6 51/1/6
f 51/1/6 50/1/6 52/1/6
f 41/1/6 51/1/6 53/1/6
f 53/1/6 51/1/6 54/1/6
f 54/1/6 51/1/6 55/1/6
f 55/1/6 51/1/6 56/1/6
f 56/1/6 51/1/6 57/1/6
f 51/2/6 52/2/6 58/2/6
f 57/1/6 51/1/6 58/1/6
f 41/1/6 53/1/6 59/1/6
f 53/2/6 54/2/6 59/2/6
f 54/1/6 55/1/6 60/1/6
f 59/2/6 54/2/6 60/2/6
f 55/2/6 56/2/6 61/2/6
f 60/1/6 55/1/6 61/1/6
f 56/1/6 57/1/6 62/1/6
f 61/2/6 56/2/6 62/2/6
f 57/2/6 58/2/6 63/2/6
f 62/1/6 57/1/6 63/1/6
f 58/2/6 52/2/6 64/2/6
f 63/2/6 58/2/6 64/2/6
f 60/1/6 61/1/6 65/1/6
f 64/2/6 52/2/6 65/2/6
f 63/1/6 64/1/6 65/1/6
f 59/1/6 60/1/6 65/1/6
f 62/1/6 63/1/6 65/1/6
f 61/1/6 62/1/6 65/1/6
f 65/2/6 52/2/6 66/2/6
f 59/1/6 65/1/6 67/1/6
f 65/1/6 66/1/6 67/1/6
f 67/1/6 66/1/6 68/1/6
f 59/1/6 67/1/6 69/1/6
f 67/2/6 68/2/6 69/2/6
f 69/2/6 68/2/6 70/2/6
f 59/1/6 69/1/6 71/1/6
f 69/1/6 70/1/6 71/1/6
f 71/1/6 70/1/6 72/1/6
f 59/1/6 71/1/6 73/1/6
f 71/2/6 72/2/6 73/2/6
f 73/2/6 72/2/6 74/2/6
f 41/1/6 59/1/6 75/1/6
f 59/1/6 73/1/6 75/1/6
f 73/1/6 74/1/6 75/1/6
f 75/1/6 74/1/6 76/1/6
