# MagicaVoxel @ Ephtracy

# group
o 

# material
mtllib Exports-4.mtl
usemtl palette

# normals
vn 1 0 0
vn -1 0 0
vn 0 0 1
vn 0 0 -1
vn 0 -1 0
vn 0 1 0

# texcoords
vt 0.982422 0.5
vt 0.986328 0.5

# verts
v 2.1 0 0
v 2.1 0 -2.1
v 2.1 0.4 0
v 2.1 0.4 -2.1
v 0 0 0
v 0 0 -2.1
v 0 0.3 0
v 0 0.3 -2.1
v 0 0.4 0
v 0 0.4 -2.1
v 2.1 0 0
v 2.1 0.4 0
v 0.0999999 0.3 0
v 0.0999999 0.4 0
v 0 0 0
v 0 0.3 0
v 0 0.4 0
v 2.1 0 -2.1
v 2.1 0.4 -2.1
v 0.0999999 0.3 -2.1
v 0.0999999 0.4 -2.1
v 0 0 -2.1
v 0 0.3 -2.1
v 0 0.4 -2.1
v 2.1 0 0
v 0 0 0
v 2.1 0 -2.1
v 0 0 -2.1
v 2.1 0.4 0
v 0.0999999 0.4 0
v 0 0.4 0
v 2.1 0.4 -2.1
v 0.0999999 0.4 -2.1
v 0 0.4 -2.1

# faces
f 1/1/1 2/1/1 3/1/1
f 3/1/1 2/1/1 4/1/1
f 7/1/2 6/1/2 5/1/2
f 8/1/2 6/1/2 7/1/2
f 9/2/2 8/2/2 7/2/2
f 10/2/2 8/2/2 9/2/2
f 11/1/3 12/1/3 13/1/3
f 13/1/3 12/1/3 14/1/3
f 11/1/3 13/1/3 15/1/3
f 13/2/3 14/2/3 16/2/3
f 15/1/3 13/1/3 16/1/3
f 16/2/3 14/2/3 17/2/3
f 20/1/4 19/1/4 18/1/4
f 21/1/4 19/1/4 20/1/4
f 22/1/4 20/1/4 18/1/4
f 23/2/4 21/2/4 20/2/4
f 23/1/4 20/1/4 22/1/4
f 24/2/4 21/2/4 23/2/4
f 25/1/5 26/1/5 27/1/5
f 27/1/5 26/1/5 28/1/5
f 32/1/6 30/1/6 29/1/6
f 33/2/6 31/2/6 30/2/6
f 33/1/6 30/1/6 32/1/6
f 34/2/6 31/2/6 33/2/6
